HIERARCHY
ROOT Hips
{
  OFFSET 0.000000 95.000000 0.000000
  CHANNELS 6 Xposition Yposition Zposition Zrotation Xrotation Yrotation
  JOINT Spine
  {
    OFFSET 0.000000 10.000000 0.000000
    CHANNELS 3 Zrotation Xrotation Yrotation
    JOINT Spine1
    {
      OFFSET 0.000000 12.000000 0.000000
      CHANNELS 3 Zrotation Xrotation Yrotation
      JOINT Spine2
      {
        OFFSET 0.000000 12.000000 0.000000
        CHANNELS 3 Zrotation Xrotation Yrotation
        JOINT Neck
        {
          OFFSET 0.000000 10.000000 0.000000
          CHANNELS 3 Zrotation Xrotation Yrotation
          JOINT Head
          {
            OFFSET 0.000000 8.000000 0.000000
            CHANNELS 3 Zrotation Xrotation Yrotation
            End Site
            {
              OFFSET 0.000000 10.000000 0.000000
            }
          }
        }
        JOINT LeftShoulder
        {
          OFFSET 6.000000 8.000000 0.000000
          CHANNELS 3 Zrotation Xrotation Yrotation
          JOINT LeftArm
          {
            OFFSET 12.000000 0.000000 0.000000
            CHANNELS 3 Zrotation Xrotation Yrotation
            JOINT LeftForeArm
            {
              OFFSET 24.000000 0.000000 0.000000
              CHANNELS 3 Zrotation Xrotation Yrotation
              JOINT LeftHand
              {
                OFFSET 22.000000 0.000000 0.000000
                CHANNELS 3 Zrotation Xrotation Yrotation
                JOINT LeftHandThumb1
                {
                  OFFSET 2.500000 -1.200000 1.500000
                  CHANNELS 3 Zrotation Xrotation Yrotation
                  JOINT LeftHandThumb2
                  {
                    OFFSET 2.500000 -0.400000 0.600000
                    CHANNELS 3 Zrotation Xrotation Yrotation
                    JOINT LeftHandThumb3
                    {
                      OFFSET 2.000000 -0.200000 0.400000
                      CHANNELS 3 Zrotation Xrotation Yrotation
                      End Site
                      {
                        OFFSET 1.500000 0.000000 0.000000
                      }
                    }
                  }
                }
                JOINT LeftHandIndex1
                {
                  OFFSET 5.500000 0.600000 1.200000
                  CHANNELS 3 Zrotation Xrotation Yrotation
                  JOINT LeftHandIndex2
                  {
                    OFFSET 3.500000 0.000000 0.000000
                    CHANNELS 3 Zrotation Xrotation Yrotation
                    JOINT LeftHandIndex3
                    {
                      OFFSET 2.400000 0.000000 0.000000
                      CHANNELS 3 Zrotation Xrotation Yrotation
                      End Site
                      {
                        OFFSET 1.800000 0.000000 0.000000
                      }
                    }
                  }
                }
                JOINT LeftHandMiddle1
                {
                  OFFSET 5.800000 0.000000 0.000000
                  CHANNELS 3 Zrotation Xrotation Yrotation
                  JOINT LeftHandMiddle2
                  {
                    OFFSET 4.000000 0.000000 0.000000
                    CHANNELS 3 Zrotation Xrotation Yrotation
                    JOINT LeftHandMiddle3
                    {
                      OFFSET 2.800000 0.000000 0.000000
                      CHANNELS 3 Zrotation Xrotation Yrotation
                      End Site
                      {
                        OFFSET 2.000000 0.000000 0.000000
                      }
                    }
                  }
                }
                JOINT LeftHandRing1
                {
                  OFFSET 5.400000 -0.600000 -1.000000
                  CHANNELS 3 Zrotation Xrotation Yrotation
                  JOINT LeftHandRing2
                  {
                    OFFSET 3.600000 0.000000 0.000000
                    CHANNELS 3 Zrotation Xrotation Yrotation
                    JOINT LeftHandRing3
                    {
                      OFFSET 2.400000 0.000000 0.000000
                      CHANNELS 3 Zrotation Xrotation Yrotation
                      End Site
                      {
                        OFFSET 1.800000 0.000000 0.000000
                      }
                    }
                  }
                }
                JOINT LeftHandPinky1
                {
                  OFFSET 4.800000 -1.200000 -2.000000
                  CHANNELS 3 Zrotation Xrotation Yrotation
                  JOINT LeftHandPinky2
                  {
                    OFFSET 2.800000 0.000000 0.000000
                    CHANNELS 3 Zrotation Xrotation Yrotation
                    JOINT LeftHandPinky3
                    {
                      OFFSET 2.000000 0.000000 0.000000
                      CHANNELS 3 Zrotation Xrotation Yrotation
                      End Site
                      {
                        OFFSET 1.500000 0.000000 0.000000
                      }
                    }
                  }
                }
              }
            }
          }
        }
        JOINT RightShoulder
        {
          OFFSET -6.000000 8.000000 0.000000
          CHANNELS 3 Zrotation Xrotation Yrotation
          JOINT RightArm
          {
            OFFSET -12.000000 0.000000 0.000000
            CHANNELS 3 Zrotation Xrotation Yrotation
            JOINT RightForeArm
            {
              OFFSET -24.000000 0.000000 0.000000
              CHANNELS 3 Zrotation Xrotation Yrotation
              JOINT RightHand
              {
                OFFSET -22.000000 0.000000 0.000000
                CHANNELS 3 Zrotation Xrotation Yrotation
                JOINT RightHandThumb1
                {
                  OFFSET -2.500000 -1.200000 1.500000
                  CHANNELS 3 Zrotation Xrotation Yrotation
                  JOINT RightHandThumb2
                  {
                    OFFSET -2.500000 -0.400000 0.600000
                    CHANNELS 3 Zrotation Xrotation Yrotation
                    JOINT RightHandThumb3
                    {
                      OFFSET -2.000000 -0.200000 0.400000
                      CHANNELS 3 Zrotation Xrotation Yrotation
                      End Site
                      {
                        OFFSET -1.500000 0.000000 0.000000
                      }
                    }
                  }
                }
                JOINT RightHandIndex1
                {
                  OFFSET -5.500000 0.600000 1.200000
                  CHANNELS 3 Zrotation Xrotation Yrotation
                  JOINT RightHandIndex2
                  {
                    OFFSET -3.500000 0.000000 0.000000
                    CHANNELS 3 Zrotation Xrotation Yrotation
                    JOINT RightHandIndex3
                    {
                      OFFSET -2.400000 0.000000 0.000000
                      CHANNELS 3 Zrotation Xrotation Yrotation
                      End Site
                      {
                        OFFSET -1.800000 0.000000 0.000000
                      }
                    }
                  }
                }
                JOINT RightHandMiddle1
                {
                  OFFSET -5.800000 0.000000 0.000000
                  CHANNELS 3 Zrotation Xrotation Yrotation
                  JOINT RightHandMiddle2
                  {
                    OFFSET -4.000000 0.000000 0.000000
                    CHANNELS 3 Zrotation Xrotation Yrotation
                    JOINT RightHandMiddle3
                    {
                      OFFSET -2.800000 0.000000 0.000000
                      CHANNELS 3 Zrotation Xrotation Yrotation
                      End Site
                      {
                        OFFSET -2.000000 0.000000 0.000000
                      }
                    }
                  }
                }
                JOINT RightHandRing1
                {
                  OFFSET -5.400000 -0.600000 -1.000000
                  CHANNELS 3 Zrotation Xrotation Yrotation
                  JOINT RightHandRing2
                  {
                    OFFSET -3.600000 0.000000 0.000000
                    CHANNELS 3 Zrotation Xrotation Yrotation
                    JOINT RightHandRing3
                    {
                      OFFSET -2.400000 0.000000 0.000000
                      CHANNELS 3 Zrotation Xrotation Yrotation
                      End Site
                      {
                        OFFSET -1.800000 0.000000 0.000000
                      }
                    }
                  }
                }
                JOINT RightHandPinky1
                {
                  OFFSET -4.800000 -1.200000 -2.000000
                  CHANNELS 3 Zrotation Xrotation Yrotation
                  JOINT RightHandPinky2
                  {
                    OFFSET -2.800000 0.000000 0.000000
                    CHANNELS 3 Zrotation Xrotation Yrotation
                    JOINT RightHandPinky3
                    {
                      OFFSET -2.000000 0.000000 0.000000
                      CHANNELS 3 Zrotation Xrotation Yrotation
                      End Site
                      {
                        OFFSET -1.500000 0.000000 0.000000
                      }
                    }
                  }
                }
              }
            }
          }
        }
      }
    }
  }
  JOINT LeftUpLeg
  {
    OFFSET 10.000000 -5.000000 0.000000
    CHANNELS 3 Zrotation Xrotation Yrotation
    JOINT LeftLeg
    {
      OFFSET 0.000000 -42.000000 0.000000
      CHANNELS 3 Zrotation Xrotation Yrotation
      JOINT LeftFoot
      {
        OFFSET 0.000000 -42.000000 4.000000
        CHANNELS 3 Zrotation Xrotation Yrotation
        End Site
        {
          OFFSET 0.000000 0.000000 12.000000
        }
      }
    }
  }
  JOINT RightUpLeg
  {
    OFFSET -10.000000 -5.000000 0.000000
    CHANNELS 3 Zrotation Xrotation Yrotation
    JOINT RightLeg
    {
      OFFSET 0.000000 -42.000000 0.000000
      CHANNELS 3 Zrotation Xrotation Yrotation
      JOINT RightFoot
      {
        OFFSET 0.000000 -42.000000 4.000000
        CHANNELS 3 Zrotation Xrotation Yrotation
        End Site
        {
          OFFSET 0.000000 0.000000 12.000000
        }
      }
    }
  }
}
MOTION
Frames: 10
Frame Time: 0.033533
0.0839 0.1755 -0.0907 -8.9574 4.1808 0.3577 4.4605 0.0406 -0.5204 0.0000 0.0000 0.0000 0.0000 0.0000 0.0000 23.7766 59.2963 16.8523 0.0000 0.0000 0.0000 0.0000 0.0000 0.0000 -81.0989 4.0480 10.1733 3.4905 -0.3888 -0.1797 -7.3630 8.3938 -9.7114 -41.0705 -1.6763 -4.4732 12.5748 -1.3839 12.5108 15.9689 -1.9186 13.6153 -34.0287 -0.4970 -1.6240 -40.3146 3.2995 8.9725 -14.3955 1.0863 8.5862 -41.0283 -0.2801 -0.7486 -38.9599 2.6676 7.5321 -16.5196 0.7314 5.0354 -41.7821 0.5610 1.4697 -36.6195 0.2374 0.7175 -13.8416 0.4439 3.6562 -33.7918 1.2158 4.0013 -40.0531 0.3800 1.0426 -16.3407 0.6832 4.7560 0.0000 0.0000 0.0000 76.5477 -18.0041 16.2005 -157.2408 71.4124 -56.9401 -10.0719 -3.4306 29.5405 -26.6923 1.3010 5.4798 5.9785 -1.0422 19.7597 7.1762 -0.3645 5.8072 -16.7683 3.5798 23.9419 -3.5989 0.2615 8.3099 -2.8332 0.1306 5.2765 -19.8721 4.1492 23.3667 -8.2997 0.5146 7.0833 -2.2747 0.0179 0.9016 -21.7761 4.9256 25.2081 -12.2911 0.3665 3.4032 -7.9896 -0.3164 -4.5288 -18.3168 4.9415 29.9672 -12.7166 0.0279 0.2506 -10.5494 -0.5219 -5.6490 8.7259 -4.2779 -1.0382 0.0000 0.0000 0.0000 0.0000 0.0000 0.0000 11.0263 4.3097 0.4730 0.0000 0.0000 0.0000 0.0000 0.0000 0.0000
0.0805 0.1733 -0.0941 -8.8160 3.8655 1.2876 4.6193 0.1151 -1.4246 0.0000 0.0000 0.0000 0.0000 0.0000 0.0000 23.2722 60.4035 16.6950 0.0000 0.0000 0.0000 0.0000 0.0000 0.0000 -80.4409 4.6261 10.5233 2.1831 -0.0007 -0.3763 -5.0701 -1.9673 3.3811 -41.3728 -1.1099 -2.9388 15.9267 -2.3407 16.6177 14.9330 -1.5925 12.1065 -30.7814 3.1798 11.5156 -30.8334 6.8031 24.3274 -6.1527 0.6762 12.5325 -37.1720 4.8034 14.2195 -30.3372 5.7094 20.8442 -10.6857 1.0973 11.6922 -37.8939 5.9003 17.0751 -30.5379 3.0963 11.3081 -11.5120 0.8783 8.6962 -29.5783 4.3494 16.3700 -36.1656 2.7665 8.4589 -12.5331 1.1569 10.5062 0.0000 0.0000 0.0000 76.7937 -18.0235 16.6754 -155.3030 71.6589 -56.3182 -13.2278 1.9559 31.4870 -26.0854 0.4806 2.0745 4.9441 -0.8493 19.4819 5.4541 -0.2664 5.5888 -16.2744 2.7807 19.2681 -4.4882 0.2984 7.6044 -3.5692 0.1446 4.6378 -19.6510 3.3164 18.9792 -9.5953 0.4617 5.4963 -2.1398 0.0200 1.0721 -21.7557 4.0440 20.8205 -15.0390 0.2269 1.7191 -8.5847 -0.3556 -4.7348 -18.9738 4.3017 25.3335 -15.0974 -0.2428 -1.8318 -11.1108 -0.6193 -6.3603 8.6930 -3.7800 -1.8929 0.0000 0.0000 0.0000 0.0000 0.0000 0.0000 11.1797 3.5659 -0.5955 0.0000 0.0000 0.0000 0.0000 0.0000 0.0000
0.0777 0.1712 -0.0968 -8.8846 3.9520 1.3844 4.7966 0.1276 -1.5201 0.0000 0.0000 0.0000 0.0000 0.0000 0.0000 23.4210 60.7895 16.8579 0.0000 0.0000 0.0000 0.0000 0.0000 0.0000 -80.2241 4.6595 10.6919 1.2778 0.3463 -0.5997 -7.2163 1.5388 -0.6282 -39.0470 -1.1063 -3.1194 15.2605 -1.8394 13.6667 11.5312 -1.3622 13.4304 -27.3279 0.9590 3.9433 -40.5475 6.5910 17.7200 -11.0182 1.2201 12.5999 -36.5705 2.5294 7.6448 -37.6933 4.3790 12.7819 -13.4035 0.9231 7.8440 -38.9394 3.9639 11.1814 -32.2386 1.1562 3.9994 -11.7262 0.4407 4.2895 -31.5012 3.4101 12.0498 -35.0735 1.4296 4.5218 -14.3916 0.8896 7.0377 0.0000 0.0000 0.0000 76.9054 -18.5959 17.2575 -154.2830 72.3040 -56.6770 -10.8897 -1.8880 31.9500 -28.3406 0.5247 2.0781 6.6463 -1.2201 20.7820 6.8468 -0.3764 6.2861 -16.8587 2.9867 19.9551 -2.9336 0.1961 7.6486 -2.6083 0.1198 5.2568 -20.2314 3.5593 19.7581 -8.3747 0.3425 4.6752 -1.1546 0.0101 1.0057 -21.9068 4.1918 21.4159 -11.9604 0.0514 0.4903 -7.3367 -0.2833 -4.4163 -16.9117 3.9345 26.0197 -14.3302 -0.3263 -2.5953 -11.9848 -0.6531 -6.2162 8.8737 -3.6296 -1.9725 0.0000 0.0000 0.0000 0.0000 0.0000 0.0000 11.4030 3.3794 -0.7110 0.0000 0.0000 0.0000 0.0000 0.0000 0.0000
0.0762 0.1692 -0.1008 -8.6362 4.6243 2.3622 4.8495 0.2127 -2.5059 0.0000 0.0000 0.0000 0.0000 0.0000 0.0000 22.3762 60.3883 16.0247 0.0000 0.0000 0.0000 0.0000 0.0000 0.0000 -80.3981 4.4868 11.1550 1.1360 0.9708 -1.2634 -7.9951 3.0941 -2.5586 -40.0876 -1.5727 -4.3089 15.3541 -1.0826 8.0185 16.6137 -1.4139 9.6610 -31.3340 -0.7277 -2.5943 -42.9091 2.9680 7.5430 -13.8768 1.0712 8.7857 -36.9875 0.3222 0.9634 -40.1406 1.9017 5.2020 -15.2861 0.4806 3.5801 -39.0294 1.6736 4.7199 -32.6178 0.3507 1.1986 -12.6906 0.2582 2.3213 -32.1075 1.7830 6.1905 -33.8097 1.4331 4.7131 -15.5965 0.6552 4.7816 0.0000 0.0000 0.0000 76.3898 -19.9893 18.4420 -149.8610 74.0069 -54.9914 -9.8178 -2.7715 32.9120 -27.8958 1.2771 5.1388 8.6519 -1.5215 19.9121 7.3006 -0.3463 5.4242 -16.7203 3.0692 20.6631 -4.0494 0.2892 8.1674 -1.9872 0.1085 6.2474 -20.5459 3.8788 21.1651 -11.7197 0.7465 7.2638 -0.4865 0.0147 3.4518 -22.1231 4.7310 23.8627 -18.5852 0.7441 4.5456 -11.1584 -0.2167 -2.2179 -16.8204 4.3846 29.0329 -20.5686 -0.2620 -1.4439 -17.3440 -0.8735 -5.7225 8.5428 -4.2926 -3.0497 0.0000 0.0000 0.0000 0.0000 0.0000 0.0000 11.7871 1.8824 -1.9285 0.0000 0.0000 0.0000 0.0000 0.0000 0.0000
0.0748 0.1680 -0.1021 -8.4216 4.3720 3.6119 4.9791 0.3253 -3.7288 0.0000 0.0000 0.0000 0.0000 0.0000 0.0000 21.5253 60.8909 15.4403 0.0000 0.0000 0.0000 0.0000 0.0000 0.0000 -80.6482 5.1685 11.5270 0.8390 1.4189 -1.7063 -10.5879 3.9878 -3.4354 -36.0016 -1.1335 -3.4873 14.8990 -0.8985 6.8634 4.0704 -0.3701 10.3868 -28.9324 -1.5483 -5.9964 -49.0344 2.4756 5.4248 -20.9830 1.8303 9.8598 -34.4004 -0.7012 -2.2649 -43.6112 1.1179 2.7938 -16.6627 0.3727 2.5445 -37.5801 0.4094 1.2031 -35.1784 0.1709 0.5392 -13.0598 0.2768 2.4174 -30.5816 0.5503 2.0125 -36.5907 1.4636 4.4246 -15.4705 0.6440 4.7386 0.0000 0.0000 0.0000 76.6107 -19.4868 18.2324 -150.7980 74.2753 -55.9430 -9.7573 -2.4137 32.6179 -27.6698 1.4205 5.7635 9.5391 -1.7834 21.1332 7.3666 -0.3036 4.7137 -15.7996 2.9690 21.1582 -3.3092 0.2311 7.9859 -2.3882 0.1139 5.4583 -19.4759 3.8346 22.0754 -11.1767 0.6722 6.8624 -1.6650 0.0263 1.8121 -20.8092 4.6010 24.6819 -16.7802 0.3981 2.6989 -12.8932 -0.5958 -5.2692 -15.6816 4.2680 30.2822 -20.0394 -0.2796 -1.5826 -20.4926 -1.5268 -8.4318 8.5812 -4.0915 -4.2685 0.0000 0.0000 0.0000 0.0000 0.0000 0.0000 11.9319 2.5108 -3.0765 0.0000 0.0000 0.0000 0.0000 0.0000 0.0000
0.0767 0.1654 -0.1008 -8.3877 4.2641 3.3234 4.8857 0.2945 -3.4409 0.0000 0.0000 0.0000 0.0000 0.0000 0.0000 21.3024 60.3671 15.1631 0.0000 0.0000 0.0000 0.0000 0.0000 0.0000 -80.6415 5.0943 11.3296 0.7376 1.2340 -1.4844 -12.3135 8.8933 -10.1747 -35.8696 -1.2199 -3.7678 15.5361 -0.9879 7.2321 4.4908 -0.3374 8.5884 -24.2487 -2.1999 -10.2144 -45.3854 -0.6865 -1.6417 -19.5984 0.9856 5.7021 -31.2838 -2.4431 -8.7099 -46.6798 -0.7353 -1.7040 -20.9525 0.2419 1.3079 -34.9312 -1.6245 -5.1599 -40.7960 -0.6936 -1.8650 -16.1398 0.3901 2.7509 -28.9893 -0.7315 -2.8291 -41.7943 0.2089 0.5472 -16.8241 0.5083 3.4359 0.0000 0.0000 0.0000 76.6100 -19.5879 18.4504 -152.7739 74.0607 -57.7409 -9.2950 -2.7769 31.1006 -28.9223 1.5248 5.9076 9.3306 -1.8300 22.1474 7.0366 -0.4268 6.9335 -17.0213 3.4988 23.0715 -5.8687 0.5491 10.6811 -3.5152 0.1564 5.0946 -19.8435 4.0059 22.6126 -11.3803 0.9125 9.1388 -3.8402 0.0949 2.8288 -20.9634 4.6171 24.5854 -17.0157 0.8551 5.7117 -14.3047 -0.2097 -1.6708 -15.6088 4.2515 30.3061 -19.3673 0.0001 0.0004 -21.1600 -1.0572 -5.6558 8.7838 -3.9169 -3.9471 0.0000 0.0000 0.0000 0.0000 0.0000 0.0000 12.3614 2.7988 -2.7091 0.0000 0.0000 0.0000 0.0000 0.0000 0.0000
0.0755 0.1711 -0.0991 -8.3513 4.9412 2.6972 4.8296 0.2401 -2.8388 0.0000 0.0000 0.0000 0.0000 0.0000 0.0000 20.5195 59.2942 14.4683 0.0000 0.0000 0.0000 0.0000 0.0000 0.0000 -81.0229 4.3810 11.2318 1.0051 1.3326 -1.6281 -7.7502 6.5151 -7.0397 -37.2003 -1.9656 -5.8361 15.0904 -1.1719 8.8302 1.1784 -0.0938 9.1061 -28.1699 -1.7568 -6.9936 -43.7667 1.1612 2.8906 -15.7490 1.0063 7.2663 -32.2526 -1.3385 -4.6271 -45.2167 0.3216 0.7723 -16.9405 0.4310 2.8937 -34.6029 -0.7890 -2.5326 -40.1213 -0.5869 -1.6071 -14.1943 0.4170 3.3480 -26.9669 -0.5295 -2.2080 -42.3310 0.7018 1.8125 -17.5254 0.6933 4.4953 0.0000 0.0000 0.0000 76.6007 -20.4958 18.7077 -152.2071 73.8167 -57.5759 -13.4992 6.1641 29.7954 -25.6499 0.2199 0.9657 6.4442 -1.2989 22.7695 6.3674 -0.3436 6.1717 -14.7432 2.5331 19.3954 -3.4557 0.1812 6.0023 -2.5949 0.1028 4.5366 -18.3300 3.2254 19.7978 -9.2645 0.3208 3.9576 -0.8812 0.0053 0.6926 -20.2597 3.8976 21.5654 -13.7508 0.1897 1.5736 -8.9301 -0.4561 -5.8358 -17.4127 4.0598 26.0637 -16.8826 -0.4939 -3.3273 -14.8332 -1.1919 -9.1372 9.0164 -4.3929 -3.3808 0.0000 0.0000 0.0000 0.0000 0.0000 0.0000 12.2253 2.3329 -2.1426 0.0000 0.0000 0.0000 0.0000 0.0000 0.0000
0.0736 0.1746 -0.1009 -8.5500 4.7767 3.4237 5.0236 0.3130 -3.5567 0.0000 0.0000 0.0000 0.0000 0.0000 0.0000 20.4528 58.9513 14.3428 0.0000 0.0000 0.0000 0.0000 0.0000 0.0000 -81.3027 4.6634 11.2772 1.8089 1.6360 -2.0699 -6.9652 12.0299 -14.3683 -36.7103 -2.3001 -6.9249 9.8542 -1.0605 12.2551 4.3425 -0.3717 9.7794 -28.7904 -2.3274 -9.0502 -35.7731 -0.8399 -2.6020 -11.8515 0.5791 5.5754 -34.5681 -1.9940 -6.4024 -37.7591 -0.5547 -1.6220 -13.3875 0.1241 1.0575 -37.9891 -1.5299 -4.4426 -32.6702 -0.8004 -2.7305 -12.3479 0.2108 1.9482 -32.5775 -0.6449 -2.2066 -34.2910 -0.3911 -1.2676 -14.5041 0.3460 2.7185 0.0000 0.0000 0.0000 76.4929 -20.8938 19.4516 -150.9638 73.7906 -57.2258 -14.0532 8.1637 27.7493 -26.1933 0.9780 4.2020 3.7234 -0.6168 18.8058 3.3779 -0.0900 3.0528 -14.9446 2.6682 20.1367 -3.5804 0.2212 7.0682 -2.5711 0.1160 5.1673 -17.0310 3.1335 20.7049 -9.3704 0.4405 5.3712 -1.8304 0.0135 0.8455 -19.3428 3.8917 22.5492 -14.9756 0.4054 3.0840 -9.5334 -0.4261 -5.1061 -18.0086 4.2254 26.2105 -15.6117 -0.0434 -0.3168 -13.2294 -0.7964 -6.8594 9.0992 -3.2757 -3.9593 0.0000 0.0000 0.0000 0.0000 0.0000 0.0000 12.3989 3.5803 -2.6475 0.0000 0.0000 0.0000 0.0000 0.0000 0.0000
0.0740 0.1789 -0.0984 -8.8087 5.7713 3.4805 5.2735 0.3367 -3.6427 0.0000 0.0000 0.0000 0.0000 0.0000 0.0000 20.2043 56.9143 13.8080 0.0000 0.0000 0.0000 0.0000 0.0000 0.0000 -81.7593 3.8501 11.3766 2.5621 1.5110 -2.0501 -2.1474 2.2442 -2.2902 -38.9953 -1.2467 -3.5201 12.2450 -1.4168 13.1504 2.2899 -0.2798 13.9322 -37.0583 -0.7516 -2.2422 -37.1697 3.9110 11.5963 -11.5567 1.2273 12.0836 -39.4381 0.3701 1.0326 -38.1828 3.1951 9.2140 -12.4354 0.6014 5.5162 -43.2195 1.6570 4.1814 -33.9415 0.9748 3.1936 -11.2628 0.4621 4.6838 -37.4322 2.1596 6.3686 -35.9922 1.2940 3.9821 -12.9350 0.7740 6.8198 0.0000 0.0000 0.0000 76.4726 -22.4669 20.1846 -148.9323 72.4086 -55.8944 -14.4707 8.4942 27.8849 -26.6660 1.0792 4.5515 1.4576 -0.1795 14.0367 -0.4038 -0.0205 -5.8070 -13.8771 2.3464 19.1043 -3.0898 0.1974 7.3089 -3.4760 0.1192 3.9285 -16.1128 2.8813 20.1503 -7.3710 0.4137 6.4162 -1.5594 0.0031 0.2276 -17.9114 3.4982 21.9330 -12.2202 0.4313 4.0275 -6.0052 -0.2039 -3.8849 -16.5815 3.7280 25.1792 -13.1197 -0.1562 -1.3587 -9.8805 -0.5814 -6.7181 9.4416 -4.1288 -4.1705 0.0000 0.0000 0.0000 0.0000 0.0000 0.0000 12.6155 3.4055 -2.6926 0.0000 0.0000 0.0000 0.0000 0.0000 0.0000
0.0748 0.1815 -0.0944 -8.7753 6.6765 3.2191 5.2621 0.3143 -3.4090 0.0000 0.0000 0.0000 0.0000 0.0000 0.0000 19.7565 55.2155 13.2218 0.0000 0.0000 0.0000 0.0000 0.0000 0.0000 -81.9429 3.0986 11.5190 3.0034 1.3184 -1.9288 -1.7953 4.2840 -4.7680 -37.9999 -1.6979 -4.9284 7.5501 -1.2724 19.1053 6.5377 -0.8640 15.0415 -38.5225 0.7280 2.0832 -26.4025 2.8913 12.2811 -7.0451 0.3294 5.3465 -52.3972 1.9229 3.9069 -31.9385 2.7600 9.6239 -11.1753 0.3724 3.8055 -54.3822 3.2413 6.3045 -33.4553 -0.0537 -0.1786 -12.0142 0.3784 3.5947 -52.1049 3.1640 6.4668 -31.9814 -1.4139 -4.9310 -11.2037 0.5173 5.2702 0.0000 0.0000 0.0000 75.8382 -23.4145 20.4910 -152.0151 71.1825 -57.8771 -14.4355 7.3675 27.7403 -24.8400 0.9616 4.3642 2.2878 -0.3112 15.4914 1.6239 0.0408 -2.8760 -13.6407 2.3529 19.4854 -2.2660 0.1497 7.5562 -3.8145 0.1442 4.3290 -16.0145 2.9758 20.9238 -6.5088 0.3912 6.8719 -2.0522 0.0151 0.8415 -18.2899 3.7054 22.7233 -12.1010 0.4942 4.6604 -6.3533 -0.1637 -2.9489 -17.8941 4.0653 25.4076 -13.9921 -0.0176 -0.1437 -10.0451 -0.5053 -5.7445 9.4794 -5.5256 -4.1281 0.0000 0.0000 0.0000 0.0000 0.0000 0.0000 12.1863 2.6850 -2.5663 0.0000 0.0000 0.0000 0.0000 0.0000 0.0000
